G04 #@! TF.FileFunction,Copper,L1,Top,Signal*
%FSLAX46Y46*%
G04 Gerber Fmt 4.6, Leading zero omitted, Abs format (unit mm)*
G04 Created by KiCad (PCBNEW 4.0.0-rc1-stable) date 09/10/2015 2:09:20 PM*
%MOMM*%
G01*
G04 APERTURE LIST*
%ADD10C,0.100000*%
%ADD11R,4.130000X2.370000*%
%ADD12R,1.250000X1.000000*%
%ADD13R,1.000000X1.250000*%
%ADD14R,2.430000X2.370000*%
%ADD15R,0.700000X1.300000*%
%ADD16R,1.000000X3.200000*%
%ADD17R,3.200000X1.000000*%
%ADD18R,1.550000X0.600000*%
%ADD19O,1.501140X2.499360*%
%ADD20O,1.981200X3.962400*%
%ADD21R,2.920000X2.790000*%
%ADD22R,5.000000X3.000000*%
%ADD23R,2.600000X3.200000*%
%ADD24C,1.998980*%
%ADD25C,0.250000*%
G04 APERTURE END LIST*
D10*
D11*
X119380000Y-118690000D03*
X119380000Y-112450000D03*
D12*
X135890000Y-113300000D03*
X135890000Y-115300000D03*
D13*
X148860000Y-119380000D03*
X150860000Y-119380000D03*
D14*
X130810000Y-118690000D03*
X130810000Y-112450000D03*
D15*
X138750000Y-130810000D03*
X140650000Y-130810000D03*
D16*
X152960000Y-124460000D03*
X146760000Y-124460000D03*
D17*
X149860000Y-108660000D03*
X149860000Y-114860000D03*
D18*
X139540000Y-113665000D03*
X139540000Y-114935000D03*
X139540000Y-116205000D03*
X139540000Y-117475000D03*
X144940000Y-117475000D03*
X144940000Y-116205000D03*
X144940000Y-114935000D03*
X144940000Y-113665000D03*
D19*
X142240000Y-109220000D03*
X139700000Y-109220000D03*
X144780000Y-109220000D03*
D20*
X115570000Y-128270000D03*
X120570000Y-128270000D03*
X128270000Y-128270000D03*
X133270000Y-128270000D03*
X157480000Y-128270000D03*
X162480000Y-128270000D03*
D21*
X132145000Y-100330000D03*
X116775000Y-100330000D03*
D22*
X151980000Y-100330000D03*
X162980000Y-100330000D03*
D23*
X138640000Y-100330000D03*
X145840000Y-100330000D03*
D16*
X155650000Y-113030000D03*
X161850000Y-113030000D03*
D24*
X140970000Y-135890000D03*
X148590000Y-135890000D03*
X144780000Y-135890000D03*
D18*
X143670000Y-126365000D03*
X143670000Y-125095000D03*
X143670000Y-123825000D03*
X143670000Y-122555000D03*
X138270000Y-122555000D03*
X138270000Y-123825000D03*
X138270000Y-125095000D03*
X138270000Y-126365000D03*
D25*
X147809700Y-114935000D02*
X147884700Y-114860000D01*
X145965200Y-114935000D02*
X147809700Y-114935000D01*
X135890000Y-115300000D02*
X135890000Y-116175300D01*
X133375300Y-118690000D02*
X130810000Y-118690000D01*
X135890000Y-116175300D02*
X133375300Y-118690000D01*
X130810000Y-118690000D02*
X130810000Y-119470100D01*
X119380000Y-118690000D02*
X121820300Y-118690000D01*
X144940000Y-114935000D02*
X145452600Y-114935000D01*
X145452600Y-114935000D02*
X145965200Y-114935000D01*
X146090300Y-115572700D02*
X146090300Y-116205000D01*
X145452600Y-114935000D02*
X146090300Y-115572700D01*
X144940000Y-116205000D02*
X146090300Y-116205000D01*
X162980000Y-100330000D02*
X162980000Y-102205300D01*
X161850000Y-103335300D02*
X161850000Y-113030000D01*
X162980000Y-102205300D02*
X161850000Y-103335300D01*
X161211500Y-130635600D02*
X158845900Y-128270000D01*
X163076300Y-130635600D02*
X161211500Y-130635600D01*
X163867700Y-129844200D02*
X163076300Y-130635600D01*
X163867700Y-117023000D02*
X163867700Y-129844200D01*
X161850000Y-115005300D02*
X163867700Y-117023000D01*
X161850000Y-113030000D02*
X161850000Y-115005300D01*
X157480000Y-128270000D02*
X158845900Y-128270000D01*
X122600400Y-119470100D02*
X121820300Y-118690000D01*
X130810000Y-119470100D02*
X122600400Y-119470100D01*
X119380000Y-118690000D02*
X119380000Y-120250300D01*
X143670000Y-122555000D02*
X142519700Y-122555000D01*
X119195800Y-120434500D02*
X119380000Y-120250300D01*
X119195800Y-129821200D02*
X119195800Y-120434500D01*
X120043000Y-130668400D02*
X119195800Y-129821200D01*
X124505700Y-130668400D02*
X120043000Y-130668400D01*
X126904100Y-128270000D02*
X124505700Y-130668400D01*
X128270000Y-128270000D02*
X126904100Y-128270000D01*
X143670000Y-122555000D02*
X144820300Y-122555000D01*
X128270000Y-128270000D02*
X129635900Y-128270000D01*
X140650000Y-124424700D02*
X140650000Y-130810000D01*
X142519700Y-122555000D02*
X140650000Y-124424700D01*
X133217700Y-131851800D02*
X129635900Y-128270000D01*
X139245500Y-131851800D02*
X133217700Y-131851800D01*
X139924700Y-131172600D02*
X139245500Y-131851800D01*
X139924700Y-130810000D02*
X139924700Y-131172600D01*
X140650000Y-130810000D02*
X139924700Y-130810000D01*
X154138800Y-128270000D02*
X151583800Y-125715000D01*
X157480000Y-128270000D02*
X154138800Y-128270000D01*
X145779700Y-123514400D02*
X144820300Y-122555000D01*
X145779700Y-126173000D02*
X145779700Y-123514400D01*
X146042100Y-126435400D02*
X145779700Y-126173000D01*
X150863400Y-126435400D02*
X146042100Y-126435400D01*
X151583800Y-125715000D02*
X150863400Y-126435400D01*
X151583800Y-121104100D02*
X150860000Y-120380300D01*
X151583800Y-125715000D02*
X151583800Y-121104100D01*
X150860000Y-119380000D02*
X150860000Y-120380300D01*
X149860000Y-114860000D02*
X149672600Y-114860000D01*
X149672600Y-114860000D02*
X147884700Y-114860000D01*
X150860000Y-116047400D02*
X150860000Y-119380000D01*
X149672600Y-114860000D02*
X150860000Y-116047400D01*
X146090300Y-117485600D02*
X147984700Y-119380000D01*
X146090300Y-117475000D02*
X146090300Y-117485600D01*
X148860000Y-119380000D02*
X147984700Y-119380000D01*
X144940000Y-117475000D02*
X146090300Y-117475000D01*
X138270000Y-125095000D02*
X138845200Y-125095000D01*
X138270000Y-123825000D02*
X139420300Y-123825000D01*
X139420300Y-124519900D02*
X139420300Y-123825000D01*
X138845200Y-125095000D02*
X139420300Y-124519900D01*
X138750000Y-130810000D02*
X138750000Y-129784700D01*
X139443000Y-129091700D02*
X138750000Y-129784700D01*
X139443000Y-125692800D02*
X139443000Y-129091700D01*
X138845200Y-125095000D02*
X139443000Y-125692800D01*
X138270000Y-122555000D02*
X139420300Y-122555000D01*
X139540000Y-116205000D02*
X140690300Y-116205000D01*
X146760000Y-124460000D02*
X146760000Y-122484700D01*
X145560300Y-121285000D02*
X146760000Y-122484700D01*
X140690300Y-121285000D02*
X145560300Y-121285000D01*
X139420300Y-122555000D02*
X140690300Y-121285000D01*
X140690300Y-121285000D02*
X140690300Y-116205000D01*
X119380000Y-104705300D02*
X119380000Y-112450000D01*
X116775000Y-102100300D02*
X119380000Y-104705300D01*
X116775000Y-100330000D02*
X116775000Y-102100300D01*
X115570000Y-117820300D02*
X119380000Y-114010300D01*
X115570000Y-128270000D02*
X115570000Y-117820300D01*
X119380000Y-112450000D02*
X119380000Y-114010300D01*
X133250300Y-113300000D02*
X132400300Y-112450000D01*
X135890000Y-113300000D02*
X133250300Y-113300000D01*
X130810000Y-112450000D02*
X132400300Y-112450000D01*
X120570000Y-128270000D02*
X121935900Y-128270000D01*
X138270000Y-126365000D02*
X137119700Y-126365000D01*
X139540000Y-114935000D02*
X138389700Y-114935000D01*
X124306400Y-125899500D02*
X128825300Y-125899500D01*
X121935900Y-128270000D02*
X124306400Y-125899500D01*
X137119700Y-127396600D02*
X137119700Y-126365000D01*
X133888200Y-130628100D02*
X137119700Y-127396600D01*
X132701700Y-130628100D02*
X133888200Y-130628100D01*
X130855000Y-128781400D02*
X132701700Y-130628100D01*
X130855000Y-127929200D02*
X130855000Y-128781400D01*
X128825300Y-125899500D02*
X130855000Y-127929200D01*
X128825300Y-124499400D02*
X138389700Y-114935000D01*
X128825300Y-125899500D02*
X128825300Y-124499400D01*
X135890000Y-113300000D02*
X136890300Y-113300000D01*
X136890300Y-113435600D02*
X136890300Y-113300000D01*
X138389700Y-114935000D02*
X136890300Y-113435600D01*
X162480000Y-128270000D02*
X162480000Y-125913500D01*
X155609200Y-122484700D02*
X155650000Y-122443900D01*
X152960000Y-122484700D02*
X155609200Y-122484700D01*
X159010400Y-122443900D02*
X162480000Y-125913500D01*
X155650000Y-122443900D02*
X159010400Y-122443900D01*
X155650000Y-113030000D02*
X155650000Y-122443900D01*
X152960000Y-124460000D02*
X152960000Y-122484700D01*
X151980000Y-107384700D02*
X155650000Y-111054700D01*
X151980000Y-100330000D02*
X151980000Y-107384700D01*
X155650000Y-113030000D02*
X155650000Y-111054700D01*
X145840000Y-100330000D02*
X151980000Y-100330000D01*
X138640000Y-100330000D02*
X132145000Y-100330000D01*
X143670000Y-125095000D02*
X144820300Y-125095000D01*
X144820300Y-132120300D02*
X144820300Y-125095000D01*
X148590000Y-135890000D02*
X144820300Y-132120300D01*
X143670000Y-131677700D02*
X143670000Y-126365000D01*
X146174200Y-134181900D02*
X143670000Y-131677700D01*
X146174200Y-136459900D02*
X146174200Y-134181900D01*
X145365000Y-137269100D02*
X146174200Y-136459900D01*
X142349100Y-137269100D02*
X145365000Y-137269100D01*
X140970000Y-135890000D02*
X142349100Y-137269100D01*
X133270000Y-122594700D02*
X138389700Y-117475000D01*
X133270000Y-128270000D02*
X133270000Y-122594700D01*
X139540000Y-117475000D02*
X138389700Y-117475000D01*
X140825900Y-113529400D02*
X140690300Y-113665000D01*
X140825900Y-109220000D02*
X140825900Y-113529400D01*
X139540000Y-113665000D02*
X140690300Y-113665000D01*
X139700000Y-109220000D02*
X140825900Y-109220000D01*
X149860000Y-108660000D02*
X147884700Y-108660000D01*
X144940000Y-113665000D02*
X146090300Y-113665000D01*
X146090300Y-109220000D02*
X146090300Y-113665000D01*
X144780000Y-109220000D02*
X146090300Y-109220000D01*
X147324700Y-109220000D02*
X147884700Y-108660000D01*
X146090300Y-109220000D02*
X147324700Y-109220000D01*
X142519700Y-133629700D02*
X142519700Y-123825000D01*
X144780000Y-135890000D02*
X142519700Y-133629700D01*
X143670000Y-123825000D02*
X142519700Y-123825000D01*
M02*
