G04 #@! TF.FileFunction,Legend,Top*
%FSLAX46Y46*%
G04 Gerber Fmt 4.6, Leading zero omitted, Abs format (unit mm)*
G04 Created by KiCad (PCBNEW 4.0.0-rc1-stable) date 09/10/2015 2:09:20 PM*
%MOMM*%
G01*
G04 APERTURE LIST*
%ADD10C,0.100000*%
%ADD11C,0.150000*%
%ADD12C,0.152400*%
G04 APERTURE END LIST*
D10*
D11*
X116280000Y-119270000D02*
X116280000Y-111370000D01*
X122480000Y-119270000D02*
X122480000Y-111370000D01*
X136740000Y-114800000D02*
X136740000Y-113800000D01*
X135040000Y-113800000D02*
X135040000Y-114800000D01*
X150360000Y-118530000D02*
X149360000Y-118530000D01*
X149360000Y-120230000D02*
X150360000Y-120230000D01*
X128610000Y-111370000D02*
X128610000Y-119370000D01*
X133010000Y-119370000D02*
X133010000Y-111270000D01*
X140300000Y-131685000D02*
X139100000Y-131685000D01*
X139100000Y-129935000D02*
X140300000Y-129935000D01*
X147260000Y-122635000D02*
X152460000Y-122635000D01*
X152460000Y-126285000D02*
X147260000Y-126285000D01*
X148035000Y-114360000D02*
X148035000Y-109160000D01*
X151685000Y-109160000D02*
X151685000Y-114360000D01*
X140165000Y-112995000D02*
X140165000Y-113140000D01*
X144315000Y-112995000D02*
X144315000Y-113140000D01*
X144315000Y-118145000D02*
X144315000Y-118000000D01*
X140165000Y-118145000D02*
X140165000Y-118000000D01*
X140165000Y-112995000D02*
X144315000Y-112995000D01*
X140165000Y-118145000D02*
X144315000Y-118145000D01*
X140165000Y-113140000D02*
X138765000Y-113140000D01*
X140716000Y-106172000D02*
X140716000Y-107315000D01*
X143764000Y-106172000D02*
X143764000Y-107315000D01*
X147574000Y-107315000D02*
X147574000Y-110998000D01*
X147574000Y-110998000D02*
X136906000Y-110998000D01*
X136906000Y-110998000D02*
X136906000Y-107315000D01*
X147574000Y-106172000D02*
X147574000Y-107315000D01*
X147574000Y-107315000D02*
X136906000Y-107315000D01*
X136906000Y-107315000D02*
X136906000Y-106172000D01*
X142240000Y-106172000D02*
X136906000Y-106172000D01*
X142240000Y-106172000D02*
X147574000Y-106172000D01*
X114310400Y-130810000D02*
X116850400Y-130810000D01*
X116850400Y-130810000D02*
X116850400Y-128016000D01*
X114310400Y-128016000D02*
X116850400Y-128016000D01*
X114310400Y-130810000D02*
X114310400Y-128016000D01*
X119314200Y-130810000D02*
X121854200Y-130810000D01*
X121854200Y-130810000D02*
X121854200Y-128016000D01*
X119314200Y-128016000D02*
X121854200Y-128016000D01*
X119314200Y-130810000D02*
X119314200Y-128016000D01*
X123175000Y-122047000D02*
X123175000Y-125095000D01*
X123175000Y-122047000D02*
X112990000Y-122047000D01*
X123175000Y-122047000D02*
X123683000Y-122047000D01*
X123683000Y-122047000D02*
X123683000Y-126873000D01*
X123683000Y-126873000D02*
X123175000Y-126619000D01*
X123683000Y-133731000D02*
X123175000Y-133477000D01*
X123175000Y-133477000D02*
X123175000Y-134493000D01*
X123683000Y-132080000D02*
X123175000Y-132334000D01*
X123175000Y-132334000D02*
X123175000Y-133477000D01*
X123683000Y-132080000D02*
X123683000Y-133731000D01*
X118552200Y-134493000D02*
X118552200Y-132588000D01*
X122616200Y-128016000D02*
X122616200Y-132588000D01*
X118552200Y-134493000D02*
X122616200Y-134493000D01*
X122616200Y-134493000D02*
X123175000Y-134493000D01*
X117612400Y-134493000D02*
X117612400Y-132588000D01*
X117612400Y-134493000D02*
X118552200Y-134493000D01*
X113548400Y-128016000D02*
X113548400Y-132588000D01*
X112990000Y-134493000D02*
X113548400Y-134493000D01*
X113548400Y-134493000D02*
X117612400Y-134493000D01*
X118552200Y-132588000D02*
X122616200Y-132588000D01*
X118552200Y-132588000D02*
X118552200Y-128016000D01*
X122616200Y-132588000D02*
X122616200Y-134493000D01*
X117612400Y-132588000D02*
X113548400Y-132588000D01*
X117612400Y-132588000D02*
X117612400Y-128016000D01*
X113548400Y-132588000D02*
X113548400Y-134493000D01*
X122235200Y-131953000D02*
X122235200Y-128778000D01*
X122235200Y-131953000D02*
X118933200Y-131953000D01*
X118933200Y-131953000D02*
X118933200Y-128778000D01*
X117231400Y-131953000D02*
X117231400Y-128778000D01*
X117231400Y-131953000D02*
X113929400Y-131953000D01*
X113929400Y-131953000D02*
X113929400Y-128778000D01*
X113929400Y-128778000D02*
X114310400Y-128778000D01*
X117231400Y-128778000D02*
X116850400Y-128778000D01*
X118933200Y-128778000D02*
X119314200Y-128778000D01*
X122235200Y-128778000D02*
X121854200Y-128778000D01*
X112990000Y-134493000D02*
X112990000Y-127635000D01*
X112990000Y-127635000D02*
X112990000Y-125095000D01*
X123175000Y-126619000D02*
X123175000Y-127635000D01*
X123175000Y-127635000D02*
X123175000Y-132334000D01*
X112990000Y-125095000D02*
X123175000Y-125095000D01*
X112990000Y-125095000D02*
X112990000Y-122047000D01*
X123175000Y-125095000D02*
X123175000Y-126619000D01*
X118552200Y-124841000D02*
X118552200Y-122301000D01*
X118552200Y-122301000D02*
X122616200Y-122301000D01*
X122616200Y-122301000D02*
X122616200Y-124841000D01*
X122616200Y-124841000D02*
X118552200Y-124841000D01*
X117612400Y-124841000D02*
X117612400Y-122301000D01*
X117612400Y-124841000D02*
X113548400Y-124841000D01*
X113548400Y-124841000D02*
X113548400Y-122301000D01*
X117612400Y-122301000D02*
X113548400Y-122301000D01*
X118958600Y-123825000D02*
X122006600Y-123190000D01*
X119085600Y-123952000D02*
X122133600Y-123317000D01*
X113954800Y-123825000D02*
X117005340Y-123190000D01*
X114081800Y-123952000D02*
X117129800Y-123317000D01*
X113548400Y-128016000D02*
X113929400Y-128016000D01*
X117612400Y-128016000D02*
X117231400Y-128016000D01*
X117231400Y-128016000D02*
X113929400Y-128016000D01*
X112990000Y-127635000D02*
X113929400Y-127635000D01*
X113929400Y-127635000D02*
X117231400Y-127635000D01*
X117231400Y-127635000D02*
X118933200Y-127635000D01*
X123175000Y-127635000D02*
X122235200Y-127635000D01*
X122235200Y-127635000D02*
X118933200Y-127635000D01*
X122616200Y-128016000D02*
X122235200Y-128016000D01*
X118552200Y-128016000D02*
X118933200Y-128016000D01*
X118933200Y-128016000D02*
X122235200Y-128016000D01*
X122052972Y-124184570D02*
G75*
G03X122105660Y-123217940I-452772J509430D01*
G01*
X119110272Y-124104896D02*
G75*
G03X122098040Y-124152660I1524728J1905496D01*
G01*
X122109411Y-123213156D02*
G75*
G03X118958600Y-123266200I-1553151J-1348444D01*
G01*
X119009903Y-123216519D02*
G75*
G03X119151640Y-124142500I431297J-407821D01*
G01*
X117049149Y-124187110D02*
G75*
G03X117104400Y-123217940I-452749J511970D01*
G01*
X114109012Y-124104896D02*
G75*
G03X117096780Y-124152660I1524728J1905496D01*
G01*
X117111573Y-123208153D02*
G75*
G03X113954800Y-123266200I-1554033J-1353447D01*
G01*
X114005480Y-123218981D02*
G75*
G03X114150380Y-124142500I431920J-405359D01*
G01*
X127010400Y-130810000D02*
X129550400Y-130810000D01*
X129550400Y-130810000D02*
X129550400Y-128016000D01*
X127010400Y-128016000D02*
X129550400Y-128016000D01*
X127010400Y-130810000D02*
X127010400Y-128016000D01*
X132014200Y-130810000D02*
X134554200Y-130810000D01*
X134554200Y-130810000D02*
X134554200Y-128016000D01*
X132014200Y-128016000D02*
X134554200Y-128016000D01*
X132014200Y-130810000D02*
X132014200Y-128016000D01*
X135875000Y-122047000D02*
X135875000Y-125095000D01*
X135875000Y-122047000D02*
X125690000Y-122047000D01*
X135875000Y-122047000D02*
X136383000Y-122047000D01*
X136383000Y-122047000D02*
X136383000Y-126873000D01*
X136383000Y-126873000D02*
X135875000Y-126619000D01*
X136383000Y-133731000D02*
X135875000Y-133477000D01*
X135875000Y-133477000D02*
X135875000Y-134493000D01*
X136383000Y-132080000D02*
X135875000Y-132334000D01*
X135875000Y-132334000D02*
X135875000Y-133477000D01*
X136383000Y-132080000D02*
X136383000Y-133731000D01*
X131252200Y-134493000D02*
X131252200Y-132588000D01*
X135316200Y-128016000D02*
X135316200Y-132588000D01*
X131252200Y-134493000D02*
X135316200Y-134493000D01*
X135316200Y-134493000D02*
X135875000Y-134493000D01*
X130312400Y-134493000D02*
X130312400Y-132588000D01*
X130312400Y-134493000D02*
X131252200Y-134493000D01*
X126248400Y-128016000D02*
X126248400Y-132588000D01*
X125690000Y-134493000D02*
X126248400Y-134493000D01*
X126248400Y-134493000D02*
X130312400Y-134493000D01*
X131252200Y-132588000D02*
X135316200Y-132588000D01*
X131252200Y-132588000D02*
X131252200Y-128016000D01*
X135316200Y-132588000D02*
X135316200Y-134493000D01*
X130312400Y-132588000D02*
X126248400Y-132588000D01*
X130312400Y-132588000D02*
X130312400Y-128016000D01*
X126248400Y-132588000D02*
X126248400Y-134493000D01*
X134935200Y-131953000D02*
X134935200Y-128778000D01*
X134935200Y-131953000D02*
X131633200Y-131953000D01*
X131633200Y-131953000D02*
X131633200Y-128778000D01*
X129931400Y-131953000D02*
X129931400Y-128778000D01*
X129931400Y-131953000D02*
X126629400Y-131953000D01*
X126629400Y-131953000D02*
X126629400Y-128778000D01*
X126629400Y-128778000D02*
X127010400Y-128778000D01*
X129931400Y-128778000D02*
X129550400Y-128778000D01*
X131633200Y-128778000D02*
X132014200Y-128778000D01*
X134935200Y-128778000D02*
X134554200Y-128778000D01*
X125690000Y-134493000D02*
X125690000Y-127635000D01*
X125690000Y-127635000D02*
X125690000Y-125095000D01*
X135875000Y-126619000D02*
X135875000Y-127635000D01*
X135875000Y-127635000D02*
X135875000Y-132334000D01*
X125690000Y-125095000D02*
X135875000Y-125095000D01*
X125690000Y-125095000D02*
X125690000Y-122047000D01*
X135875000Y-125095000D02*
X135875000Y-126619000D01*
X131252200Y-124841000D02*
X131252200Y-122301000D01*
X131252200Y-122301000D02*
X135316200Y-122301000D01*
X135316200Y-122301000D02*
X135316200Y-124841000D01*
X135316200Y-124841000D02*
X131252200Y-124841000D01*
X130312400Y-124841000D02*
X130312400Y-122301000D01*
X130312400Y-124841000D02*
X126248400Y-124841000D01*
X126248400Y-124841000D02*
X126248400Y-122301000D01*
X130312400Y-122301000D02*
X126248400Y-122301000D01*
X131658600Y-123825000D02*
X134706600Y-123190000D01*
X131785600Y-123952000D02*
X134833600Y-123317000D01*
X126654800Y-123825000D02*
X129705340Y-123190000D01*
X126781800Y-123952000D02*
X129829800Y-123317000D01*
X126248400Y-128016000D02*
X126629400Y-128016000D01*
X130312400Y-128016000D02*
X129931400Y-128016000D01*
X129931400Y-128016000D02*
X126629400Y-128016000D01*
X125690000Y-127635000D02*
X126629400Y-127635000D01*
X126629400Y-127635000D02*
X129931400Y-127635000D01*
X129931400Y-127635000D02*
X131633200Y-127635000D01*
X135875000Y-127635000D02*
X134935200Y-127635000D01*
X134935200Y-127635000D02*
X131633200Y-127635000D01*
X135316200Y-128016000D02*
X134935200Y-128016000D01*
X131252200Y-128016000D02*
X131633200Y-128016000D01*
X131633200Y-128016000D02*
X134935200Y-128016000D01*
X134752972Y-124184570D02*
G75*
G03X134805660Y-123217940I-452772J509430D01*
G01*
X131810272Y-124104896D02*
G75*
G03X134798040Y-124152660I1524728J1905496D01*
G01*
X134809411Y-123213156D02*
G75*
G03X131658600Y-123266200I-1553151J-1348444D01*
G01*
X131709903Y-123216519D02*
G75*
G03X131851640Y-124142500I431297J-407821D01*
G01*
X129749149Y-124187110D02*
G75*
G03X129804400Y-123217940I-452749J511970D01*
G01*
X126809012Y-124104896D02*
G75*
G03X129796780Y-124152660I1524728J1905496D01*
G01*
X129811573Y-123208153D02*
G75*
G03X126654800Y-123266200I-1554033J-1353447D01*
G01*
X126705480Y-123218981D02*
G75*
G03X126850380Y-124142500I431920J-405359D01*
G01*
X156220400Y-130810000D02*
X158760400Y-130810000D01*
X158760400Y-130810000D02*
X158760400Y-128016000D01*
X156220400Y-128016000D02*
X158760400Y-128016000D01*
X156220400Y-130810000D02*
X156220400Y-128016000D01*
X161224200Y-130810000D02*
X163764200Y-130810000D01*
X163764200Y-130810000D02*
X163764200Y-128016000D01*
X161224200Y-128016000D02*
X163764200Y-128016000D01*
X161224200Y-130810000D02*
X161224200Y-128016000D01*
X165085000Y-122047000D02*
X165085000Y-125095000D01*
X165085000Y-122047000D02*
X154900000Y-122047000D01*
X165085000Y-122047000D02*
X165593000Y-122047000D01*
X165593000Y-122047000D02*
X165593000Y-126873000D01*
X165593000Y-126873000D02*
X165085000Y-126619000D01*
X165593000Y-133731000D02*
X165085000Y-133477000D01*
X165085000Y-133477000D02*
X165085000Y-134493000D01*
X165593000Y-132080000D02*
X165085000Y-132334000D01*
X165085000Y-132334000D02*
X165085000Y-133477000D01*
X165593000Y-132080000D02*
X165593000Y-133731000D01*
X160462200Y-134493000D02*
X160462200Y-132588000D01*
X164526200Y-128016000D02*
X164526200Y-132588000D01*
X160462200Y-134493000D02*
X164526200Y-134493000D01*
X164526200Y-134493000D02*
X165085000Y-134493000D01*
X159522400Y-134493000D02*
X159522400Y-132588000D01*
X159522400Y-134493000D02*
X160462200Y-134493000D01*
X155458400Y-128016000D02*
X155458400Y-132588000D01*
X154900000Y-134493000D02*
X155458400Y-134493000D01*
X155458400Y-134493000D02*
X159522400Y-134493000D01*
X160462200Y-132588000D02*
X164526200Y-132588000D01*
X160462200Y-132588000D02*
X160462200Y-128016000D01*
X164526200Y-132588000D02*
X164526200Y-134493000D01*
X159522400Y-132588000D02*
X155458400Y-132588000D01*
X159522400Y-132588000D02*
X159522400Y-128016000D01*
X155458400Y-132588000D02*
X155458400Y-134493000D01*
X164145200Y-131953000D02*
X164145200Y-128778000D01*
X164145200Y-131953000D02*
X160843200Y-131953000D01*
X160843200Y-131953000D02*
X160843200Y-128778000D01*
X159141400Y-131953000D02*
X159141400Y-128778000D01*
X159141400Y-131953000D02*
X155839400Y-131953000D01*
X155839400Y-131953000D02*
X155839400Y-128778000D01*
X155839400Y-128778000D02*
X156220400Y-128778000D01*
X159141400Y-128778000D02*
X158760400Y-128778000D01*
X160843200Y-128778000D02*
X161224200Y-128778000D01*
X164145200Y-128778000D02*
X163764200Y-128778000D01*
X154900000Y-134493000D02*
X154900000Y-127635000D01*
X154900000Y-127635000D02*
X154900000Y-125095000D01*
X165085000Y-126619000D02*
X165085000Y-127635000D01*
X165085000Y-127635000D02*
X165085000Y-132334000D01*
X154900000Y-125095000D02*
X165085000Y-125095000D01*
X154900000Y-125095000D02*
X154900000Y-122047000D01*
X165085000Y-125095000D02*
X165085000Y-126619000D01*
X160462200Y-124841000D02*
X160462200Y-122301000D01*
X160462200Y-122301000D02*
X164526200Y-122301000D01*
X164526200Y-122301000D02*
X164526200Y-124841000D01*
X164526200Y-124841000D02*
X160462200Y-124841000D01*
X159522400Y-124841000D02*
X159522400Y-122301000D01*
X159522400Y-124841000D02*
X155458400Y-124841000D01*
X155458400Y-124841000D02*
X155458400Y-122301000D01*
X159522400Y-122301000D02*
X155458400Y-122301000D01*
X160868600Y-123825000D02*
X163916600Y-123190000D01*
X160995600Y-123952000D02*
X164043600Y-123317000D01*
X155864800Y-123825000D02*
X158915340Y-123190000D01*
X155991800Y-123952000D02*
X159039800Y-123317000D01*
X155458400Y-128016000D02*
X155839400Y-128016000D01*
X159522400Y-128016000D02*
X159141400Y-128016000D01*
X159141400Y-128016000D02*
X155839400Y-128016000D01*
X154900000Y-127635000D02*
X155839400Y-127635000D01*
X155839400Y-127635000D02*
X159141400Y-127635000D01*
X159141400Y-127635000D02*
X160843200Y-127635000D01*
X165085000Y-127635000D02*
X164145200Y-127635000D01*
X164145200Y-127635000D02*
X160843200Y-127635000D01*
X164526200Y-128016000D02*
X164145200Y-128016000D01*
X160462200Y-128016000D02*
X160843200Y-128016000D01*
X160843200Y-128016000D02*
X164145200Y-128016000D01*
X163962972Y-124184570D02*
G75*
G03X164015660Y-123217940I-452772J509430D01*
G01*
X161020272Y-124104896D02*
G75*
G03X164008040Y-124152660I1524728J1905496D01*
G01*
X164019411Y-123213156D02*
G75*
G03X160868600Y-123266200I-1553151J-1348444D01*
G01*
X160919903Y-123216519D02*
G75*
G03X161061640Y-124142500I431297J-407821D01*
G01*
X158959149Y-124187110D02*
G75*
G03X159014400Y-123217940I-452749J511970D01*
G01*
X156019012Y-124104896D02*
G75*
G03X159006780Y-124152660I1524728J1905496D01*
G01*
X159021573Y-123208153D02*
G75*
G03X155864800Y-123266200I-1554033J-1353447D01*
G01*
X155915480Y-123218981D02*
G75*
G03X156060380Y-124142500I431920J-405359D01*
G01*
D12*
X129090869Y-94430420D02*
G75*
G03X119960000Y-94330000I-4630869J-5899580D01*
G01*
X119829131Y-106229580D02*
G75*
G03X128960000Y-106330000I4630869J5899580D01*
G01*
X115460000Y-98580000D02*
X119960000Y-94330000D01*
X133460000Y-98580000D02*
X128960000Y-94330000D01*
X128960000Y-106330000D02*
X133460000Y-102080000D01*
X115460000Y-102080000D02*
X119960000Y-106330000D01*
X130460000Y-100330000D02*
G75*
G03X130460000Y-100330000I-6000000J0D01*
G01*
D11*
X163180000Y-98730000D02*
X162880000Y-97830000D01*
X162980000Y-102430000D02*
X163280000Y-101530000D01*
X163380000Y-99630000D02*
X163380000Y-101030000D01*
X163280000Y-101530000D02*
X163280000Y-99030000D01*
X163180000Y-98730000D02*
X163180000Y-101930000D01*
X163080000Y-102230000D02*
X163080000Y-98430000D01*
X162980000Y-98230000D02*
X162980000Y-102530000D01*
X162880000Y-102830000D02*
X162880000Y-97930000D01*
X162780000Y-97630000D02*
X162780000Y-103030000D01*
X162680000Y-103330000D02*
X162680000Y-97330000D01*
X152980000Y-105330000D02*
X150980000Y-105330000D01*
X151980000Y-104330000D02*
X151980000Y-104830000D01*
X151980000Y-106330000D02*
X151980000Y-104830000D01*
X151980000Y-107330000D02*
X150480000Y-105830000D01*
X163480000Y-100330000D02*
G75*
G03X163480000Y-100330000I-6000000J0D01*
G01*
X164480000Y-93330000D02*
X164480000Y-107330000D01*
X164480000Y-93330000D02*
X150480000Y-93330000D01*
X150480000Y-105830000D02*
X150480000Y-93330000D01*
X151980000Y-107330000D02*
X164480000Y-107330000D01*
X138740000Y-97130000D02*
X147040000Y-97130000D01*
X147040000Y-103530000D02*
X138740000Y-103530000D01*
X161350000Y-114855000D02*
X156150000Y-114855000D01*
X156150000Y-111205000D02*
X161350000Y-111205000D01*
X143045000Y-127035000D02*
X143045000Y-126890000D01*
X138895000Y-127035000D02*
X138895000Y-126890000D01*
X138895000Y-121885000D02*
X138895000Y-122030000D01*
X143045000Y-121885000D02*
X143045000Y-122030000D01*
X143045000Y-127035000D02*
X138895000Y-127035000D01*
X143045000Y-121885000D02*
X138895000Y-121885000D01*
X143045000Y-126890000D02*
X144445000Y-126890000D01*
X123836703Y-115637606D02*
X123884322Y-115685225D01*
X123931941Y-115828082D01*
X123931941Y-115923320D01*
X123884322Y-116066178D01*
X123789084Y-116161416D01*
X123693846Y-116209035D01*
X123503370Y-116256654D01*
X123360512Y-116256654D01*
X123170036Y-116209035D01*
X123074798Y-116161416D01*
X122979560Y-116066178D01*
X122931941Y-115923320D01*
X122931941Y-115828082D01*
X122979560Y-115685225D01*
X123027179Y-115637606D01*
X123931941Y-114685225D02*
X123931941Y-115256654D01*
X123931941Y-114970940D02*
X122931941Y-114970940D01*
X123074798Y-115066178D01*
X123170036Y-115161416D01*
X123217655Y-115256654D01*
X138347143Y-114466666D02*
X138394762Y-114514285D01*
X138442381Y-114657142D01*
X138442381Y-114752380D01*
X138394762Y-114895238D01*
X138299524Y-114990476D01*
X138204286Y-115038095D01*
X138013810Y-115085714D01*
X137870952Y-115085714D01*
X137680476Y-115038095D01*
X137585238Y-114990476D01*
X137490000Y-114895238D01*
X137442381Y-114752380D01*
X137442381Y-114657142D01*
X137490000Y-114514285D01*
X137537619Y-114466666D01*
X137537619Y-114085714D02*
X137490000Y-114038095D01*
X137442381Y-113942857D01*
X137442381Y-113704761D01*
X137490000Y-113609523D01*
X137537619Y-113561904D01*
X137632857Y-113514285D01*
X137728095Y-113514285D01*
X137870952Y-113561904D01*
X138442381Y-114133333D01*
X138442381Y-113514285D01*
X149693334Y-117637143D02*
X149645715Y-117684762D01*
X149502858Y-117732381D01*
X149407620Y-117732381D01*
X149264762Y-117684762D01*
X149169524Y-117589524D01*
X149121905Y-117494286D01*
X149074286Y-117303810D01*
X149074286Y-117160952D01*
X149121905Y-116970476D01*
X149169524Y-116875238D01*
X149264762Y-116780000D01*
X149407620Y-116732381D01*
X149502858Y-116732381D01*
X149645715Y-116780000D01*
X149693334Y-116827619D01*
X150026667Y-116732381D02*
X150645715Y-116732381D01*
X150312381Y-117113333D01*
X150455239Y-117113333D01*
X150550477Y-117160952D01*
X150598096Y-117208571D01*
X150645715Y-117303810D01*
X150645715Y-117541905D01*
X150598096Y-117637143D01*
X150550477Y-117684762D01*
X150455239Y-117732381D01*
X150169524Y-117732381D01*
X150074286Y-117684762D01*
X150026667Y-117637143D01*
X134466603Y-115536006D02*
X134514222Y-115583625D01*
X134561841Y-115726482D01*
X134561841Y-115821720D01*
X134514222Y-115964578D01*
X134418984Y-116059816D01*
X134323746Y-116107435D01*
X134133270Y-116155054D01*
X133990412Y-116155054D01*
X133799936Y-116107435D01*
X133704698Y-116059816D01*
X133609460Y-115964578D01*
X133561841Y-115821720D01*
X133561841Y-115726482D01*
X133609460Y-115583625D01*
X133657079Y-115536006D01*
X133561841Y-114631244D02*
X133561841Y-115107435D01*
X134038031Y-115155054D01*
X133990412Y-115107435D01*
X133942793Y-115012197D01*
X133942793Y-114774101D01*
X133990412Y-114678863D01*
X134038031Y-114631244D01*
X134133270Y-114583625D01*
X134371365Y-114583625D01*
X134466603Y-114631244D01*
X134514222Y-114678863D01*
X134561841Y-114774101D01*
X134561841Y-115012197D01*
X134514222Y-115107435D01*
X134466603Y-115155054D01*
X139533334Y-129162381D02*
X139200000Y-128686190D01*
X138961905Y-129162381D02*
X138961905Y-128162381D01*
X139342858Y-128162381D01*
X139438096Y-128210000D01*
X139485715Y-128257619D01*
X139533334Y-128352857D01*
X139533334Y-128495714D01*
X139485715Y-128590952D01*
X139438096Y-128638571D01*
X139342858Y-128686190D01*
X138961905Y-128686190D01*
X140485715Y-129162381D02*
X139914286Y-129162381D01*
X140200000Y-129162381D02*
X140200000Y-128162381D01*
X140104762Y-128305238D01*
X140009524Y-128400476D01*
X139914286Y-128448095D01*
X149693334Y-128012381D02*
X149360000Y-127536190D01*
X149121905Y-128012381D02*
X149121905Y-127012381D01*
X149502858Y-127012381D01*
X149598096Y-127060000D01*
X149645715Y-127107619D01*
X149693334Y-127202857D01*
X149693334Y-127345714D01*
X149645715Y-127440952D01*
X149598096Y-127488571D01*
X149502858Y-127536190D01*
X149121905Y-127536190D01*
X150074286Y-127107619D02*
X150121905Y-127060000D01*
X150217143Y-127012381D01*
X150455239Y-127012381D01*
X150550477Y-127060000D01*
X150598096Y-127107619D01*
X150645715Y-127202857D01*
X150645715Y-127298095D01*
X150598096Y-127440952D01*
X150026667Y-128012381D01*
X150645715Y-128012381D01*
X153412381Y-111926666D02*
X152936190Y-112260000D01*
X153412381Y-112498095D02*
X152412381Y-112498095D01*
X152412381Y-112117142D01*
X152460000Y-112021904D01*
X152507619Y-111974285D01*
X152602857Y-111926666D01*
X152745714Y-111926666D01*
X152840952Y-111974285D01*
X152888571Y-112021904D01*
X152936190Y-112117142D01*
X152936190Y-112498095D01*
X152412381Y-111021904D02*
X152412381Y-111498095D01*
X152888571Y-111545714D01*
X152840952Y-111498095D01*
X152793333Y-111402857D01*
X152793333Y-111164761D01*
X152840952Y-111069523D01*
X152888571Y-111021904D01*
X152983810Y-110974285D01*
X153221905Y-110974285D01*
X153317143Y-111021904D01*
X153364762Y-111069523D01*
X153412381Y-111164761D01*
X153412381Y-111402857D01*
X153364762Y-111498095D01*
X153317143Y-111545714D01*
X141478095Y-111522381D02*
X141478095Y-112331905D01*
X141525714Y-112427143D01*
X141573333Y-112474762D01*
X141668571Y-112522381D01*
X141859048Y-112522381D01*
X141954286Y-112474762D01*
X142001905Y-112427143D01*
X142049524Y-112331905D01*
X142049524Y-111522381D01*
X143049524Y-112522381D02*
X142478095Y-112522381D01*
X142763809Y-112522381D02*
X142763809Y-111522381D01*
X142668571Y-111665238D01*
X142573333Y-111760476D01*
X142478095Y-111808095D01*
X142144762Y-104687619D02*
X142049524Y-104640000D01*
X141954286Y-104544762D01*
X141811429Y-104401905D01*
X141716190Y-104354286D01*
X141620952Y-104354286D01*
X141668571Y-104592381D02*
X141573333Y-104544762D01*
X141478095Y-104449524D01*
X141430476Y-104259048D01*
X141430476Y-103925714D01*
X141478095Y-103735238D01*
X141573333Y-103640000D01*
X141668571Y-103592381D01*
X141859048Y-103592381D01*
X141954286Y-103640000D01*
X142049524Y-103735238D01*
X142097143Y-103925714D01*
X142097143Y-104259048D01*
X142049524Y-104449524D01*
X141954286Y-104544762D01*
X141859048Y-104592381D01*
X141668571Y-104592381D01*
X143049524Y-104592381D02*
X142478095Y-104592381D01*
X142763809Y-104592381D02*
X142763809Y-103592381D01*
X142668571Y-103735238D01*
X142573333Y-103830476D01*
X142478095Y-103878095D01*
X143351286Y-108354762D02*
X143494143Y-108402381D01*
X143732239Y-108402381D01*
X143827477Y-108354762D01*
X143875096Y-108307143D01*
X143922715Y-108211905D01*
X143922715Y-108116667D01*
X143875096Y-108021429D01*
X143827477Y-107973810D01*
X143732239Y-107926190D01*
X143541762Y-107878571D01*
X143446524Y-107830952D01*
X143398905Y-107783333D01*
X143351286Y-107688095D01*
X143351286Y-107592857D01*
X143398905Y-107497619D01*
X143446524Y-107450000D01*
X143541762Y-107402381D01*
X143779858Y-107402381D01*
X143922715Y-107450000D01*
X140835095Y-108402381D02*
X140835095Y-107402381D01*
X141073190Y-107402381D01*
X141216048Y-107450000D01*
X141311286Y-107545238D01*
X141358905Y-107640476D01*
X141406524Y-107830952D01*
X141406524Y-107973810D01*
X141358905Y-108164286D01*
X141311286Y-108259524D01*
X141216048Y-108354762D01*
X141073190Y-108402381D01*
X140835095Y-108402381D01*
X138691905Y-107450000D02*
X138596667Y-107402381D01*
X138453810Y-107402381D01*
X138310952Y-107450000D01*
X138215714Y-107545238D01*
X138168095Y-107640476D01*
X138120476Y-107830952D01*
X138120476Y-107973810D01*
X138168095Y-108164286D01*
X138215714Y-108259524D01*
X138310952Y-108354762D01*
X138453810Y-108402381D01*
X138549048Y-108402381D01*
X138691905Y-108354762D01*
X138739524Y-108307143D01*
X138739524Y-107973810D01*
X138549048Y-107973810D01*
X112911905Y-121737381D02*
X112911905Y-120737381D01*
X113292858Y-120737381D01*
X113388096Y-120785000D01*
X113435715Y-120832619D01*
X113483334Y-120927857D01*
X113483334Y-121070714D01*
X113435715Y-121165952D01*
X113388096Y-121213571D01*
X113292858Y-121261190D01*
X112911905Y-121261190D01*
X114435715Y-121737381D02*
X113864286Y-121737381D01*
X114150000Y-121737381D02*
X114150000Y-120737381D01*
X114054762Y-120880238D01*
X113959524Y-120975476D01*
X113864286Y-121023095D01*
X125611905Y-121737381D02*
X125611905Y-120737381D01*
X125992858Y-120737381D01*
X126088096Y-120785000D01*
X126135715Y-120832619D01*
X126183334Y-120927857D01*
X126183334Y-121070714D01*
X126135715Y-121165952D01*
X126088096Y-121213571D01*
X125992858Y-121261190D01*
X125611905Y-121261190D01*
X126564286Y-120832619D02*
X126611905Y-120785000D01*
X126707143Y-120737381D01*
X126945239Y-120737381D01*
X127040477Y-120785000D01*
X127088096Y-120832619D01*
X127135715Y-120927857D01*
X127135715Y-121023095D01*
X127088096Y-121165952D01*
X126516667Y-121737381D01*
X127135715Y-121737381D01*
X154821905Y-121737381D02*
X154821905Y-120737381D01*
X155202858Y-120737381D01*
X155298096Y-120785000D01*
X155345715Y-120832619D01*
X155393334Y-120927857D01*
X155393334Y-121070714D01*
X155345715Y-121165952D01*
X155298096Y-121213571D01*
X155202858Y-121261190D01*
X154821905Y-121261190D01*
X155726667Y-120737381D02*
X156345715Y-120737381D01*
X156012381Y-121118333D01*
X156155239Y-121118333D01*
X156250477Y-121165952D01*
X156298096Y-121213571D01*
X156345715Y-121308810D01*
X156345715Y-121546905D01*
X156298096Y-121642143D01*
X156250477Y-121689762D01*
X156155239Y-121737381D01*
X155869524Y-121737381D01*
X155774286Y-121689762D01*
X155726667Y-121642143D01*
X124043334Y-109532381D02*
X123567143Y-109532381D01*
X123567143Y-108532381D01*
X124900477Y-109532381D02*
X124329048Y-109532381D01*
X124614762Y-109532381D02*
X124614762Y-108532381D01*
X124519524Y-108675238D01*
X124424286Y-108770476D01*
X124329048Y-108818095D01*
X157313334Y-108687143D02*
X157265715Y-108734762D01*
X157122858Y-108782381D01*
X157027620Y-108782381D01*
X156884762Y-108734762D01*
X156789524Y-108639524D01*
X156741905Y-108544286D01*
X156694286Y-108353810D01*
X156694286Y-108210952D01*
X156741905Y-108020476D01*
X156789524Y-107925238D01*
X156884762Y-107830000D01*
X157027620Y-107782381D01*
X157122858Y-107782381D01*
X157265715Y-107830000D01*
X157313334Y-107877619D01*
X158170477Y-108115714D02*
X158170477Y-108782381D01*
X157932381Y-107734762D02*
X157694286Y-108449048D01*
X158313334Y-108449048D01*
X141501905Y-104982381D02*
X141501905Y-103982381D01*
X141740000Y-103982381D01*
X141882858Y-104030000D01*
X141978096Y-104125238D01*
X142025715Y-104220476D01*
X142073334Y-104410952D01*
X142073334Y-104553810D01*
X142025715Y-104744286D01*
X141978096Y-104839524D01*
X141882858Y-104934762D01*
X141740000Y-104982381D01*
X141501905Y-104982381D01*
X143025715Y-104982381D02*
X142454286Y-104982381D01*
X142740000Y-104982381D02*
X142740000Y-103982381D01*
X142644762Y-104125238D01*
X142549524Y-104220476D01*
X142454286Y-104268095D01*
X158583334Y-110287143D02*
X158535715Y-110334762D01*
X158392858Y-110382381D01*
X158297620Y-110382381D01*
X158154762Y-110334762D01*
X158059524Y-110239524D01*
X158011905Y-110144286D01*
X157964286Y-109953810D01*
X157964286Y-109810952D01*
X158011905Y-109620476D01*
X158059524Y-109525238D01*
X158154762Y-109430000D01*
X158297620Y-109382381D01*
X158392858Y-109382381D01*
X158535715Y-109430000D01*
X158583334Y-109477619D01*
X159440477Y-109382381D02*
X159250000Y-109382381D01*
X159154762Y-109430000D01*
X159107143Y-109477619D01*
X159011905Y-109620476D01*
X158964286Y-109810952D01*
X158964286Y-110191905D01*
X159011905Y-110287143D01*
X159059524Y-110334762D01*
X159154762Y-110382381D01*
X159345239Y-110382381D01*
X159440477Y-110334762D01*
X159488096Y-110287143D01*
X159535715Y-110191905D01*
X159535715Y-109953810D01*
X159488096Y-109858571D01*
X159440477Y-109810952D01*
X159345239Y-109763333D01*
X159154762Y-109763333D01*
X159059524Y-109810952D01*
X159011905Y-109858571D01*
X158964286Y-109953810D01*
X140231905Y-133802381D02*
X140231905Y-132802381D01*
X140612858Y-132802381D01*
X140708096Y-132850000D01*
X140755715Y-132897619D01*
X140803334Y-132992857D01*
X140803334Y-133135714D01*
X140755715Y-133230952D01*
X140708096Y-133278571D01*
X140612858Y-133326190D01*
X140231905Y-133326190D01*
X141660477Y-132802381D02*
X141470000Y-132802381D01*
X141374762Y-132850000D01*
X141327143Y-132897619D01*
X141231905Y-133040476D01*
X141184286Y-133230952D01*
X141184286Y-133611905D01*
X141231905Y-133707143D01*
X141279524Y-133754762D01*
X141374762Y-133802381D01*
X141565239Y-133802381D01*
X141660477Y-133754762D01*
X141708096Y-133707143D01*
X141755715Y-133611905D01*
X141755715Y-133373810D01*
X141708096Y-133278571D01*
X141660477Y-133230952D01*
X141565239Y-133183333D01*
X141374762Y-133183333D01*
X141279524Y-133230952D01*
X141231905Y-133278571D01*
X141184286Y-133373810D01*
X147851905Y-133802381D02*
X147851905Y-132802381D01*
X148232858Y-132802381D01*
X148328096Y-132850000D01*
X148375715Y-132897619D01*
X148423334Y-132992857D01*
X148423334Y-133135714D01*
X148375715Y-133230952D01*
X148328096Y-133278571D01*
X148232858Y-133326190D01*
X147851905Y-133326190D01*
X149328096Y-132802381D02*
X148851905Y-132802381D01*
X148804286Y-133278571D01*
X148851905Y-133230952D01*
X148947143Y-133183333D01*
X149185239Y-133183333D01*
X149280477Y-133230952D01*
X149328096Y-133278571D01*
X149375715Y-133373810D01*
X149375715Y-133611905D01*
X149328096Y-133707143D01*
X149280477Y-133754762D01*
X149185239Y-133802381D01*
X148947143Y-133802381D01*
X148851905Y-133754762D01*
X148804286Y-133707143D01*
X144041905Y-133802381D02*
X144041905Y-132802381D01*
X144422858Y-132802381D01*
X144518096Y-132850000D01*
X144565715Y-132897619D01*
X144613334Y-132992857D01*
X144613334Y-133135714D01*
X144565715Y-133230952D01*
X144518096Y-133278571D01*
X144422858Y-133326190D01*
X144041905Y-133326190D01*
X145470477Y-133135714D02*
X145470477Y-133802381D01*
X145232381Y-132754762D02*
X144994286Y-133469048D01*
X145613334Y-133469048D01*
X140208095Y-127412381D02*
X140208095Y-128221905D01*
X140255714Y-128317143D01*
X140303333Y-128364762D01*
X140398571Y-128412381D01*
X140589048Y-128412381D01*
X140684286Y-128364762D01*
X140731905Y-128317143D01*
X140779524Y-128221905D01*
X140779524Y-127412381D01*
X141208095Y-127507619D02*
X141255714Y-127460000D01*
X141350952Y-127412381D01*
X141589048Y-127412381D01*
X141684286Y-127460000D01*
X141731905Y-127507619D01*
X141779524Y-127602857D01*
X141779524Y-127698095D01*
X141731905Y-127840952D01*
X141160476Y-128412381D01*
X141779524Y-128412381D01*
M02*
