G04 #@! TF.FileFunction,Soldermask,Top*
%FSLAX46Y46*%
G04 Gerber Fmt 4.6, Leading zero omitted, Abs format (unit mm)*
G04 Created by KiCad (PCBNEW 4.0.0-rc1-stable) date 09/10/2015 2:09:20 PM*
%MOMM*%
G01*
G04 APERTURE LIST*
%ADD10C,0.100000*%
%ADD11R,4.530000X2.770000*%
%ADD12R,1.650000X1.400000*%
%ADD13R,1.400000X1.650000*%
%ADD14R,2.830000X2.770000*%
%ADD15R,1.100000X1.700000*%
%ADD16R,1.400000X3.600000*%
%ADD17R,3.600000X1.400000*%
%ADD18R,1.950000X1.000000*%
%ADD19O,1.901140X2.899360*%
%ADD20O,2.381200X4.362400*%
%ADD21R,3.320000X3.190000*%
%ADD22R,5.400000X3.400000*%
%ADD23R,3.000000X3.600000*%
%ADD24C,2.398980*%
G04 APERTURE END LIST*
D10*
D11*
X119380000Y-118690000D03*
X119380000Y-112450000D03*
D12*
X135890000Y-113300000D03*
X135890000Y-115300000D03*
D13*
X148860000Y-119380000D03*
X150860000Y-119380000D03*
D14*
X130810000Y-118690000D03*
X130810000Y-112450000D03*
D15*
X138750000Y-130810000D03*
X140650000Y-130810000D03*
D16*
X152960000Y-124460000D03*
X146760000Y-124460000D03*
D17*
X149860000Y-108660000D03*
X149860000Y-114860000D03*
D18*
X139540000Y-113665000D03*
X139540000Y-114935000D03*
X139540000Y-116205000D03*
X139540000Y-117475000D03*
X144940000Y-117475000D03*
X144940000Y-116205000D03*
X144940000Y-114935000D03*
X144940000Y-113665000D03*
D19*
X142240000Y-109220000D03*
X139700000Y-109220000D03*
X144780000Y-109220000D03*
D20*
X115570000Y-128270000D03*
X120570000Y-128270000D03*
X128270000Y-128270000D03*
X133270000Y-128270000D03*
X157480000Y-128270000D03*
X162480000Y-128270000D03*
D21*
X132145000Y-100330000D03*
X116775000Y-100330000D03*
D22*
X151980000Y-100330000D03*
X162980000Y-100330000D03*
D23*
X138640000Y-100330000D03*
X145840000Y-100330000D03*
D16*
X155650000Y-113030000D03*
X161850000Y-113030000D03*
D24*
X140970000Y-135890000D03*
X148590000Y-135890000D03*
X144780000Y-135890000D03*
D18*
X143670000Y-126365000D03*
X143670000Y-125095000D03*
X143670000Y-123825000D03*
X143670000Y-122555000D03*
X138270000Y-122555000D03*
X138270000Y-123825000D03*
X138270000Y-125095000D03*
X138270000Y-126365000D03*
M02*
